<svg width="70" height="70" xmlns="http://www.w3.org/2000/svg" xmlns:xlink="http://www.w3.org/1999/xlink" viewBox="0 0 70 70"><defs><linearGradient x1="0%" y1="50%" x2="100%" y2="50%" id="c"><stop stop-color="#9BD48E" offset="0%"/><stop stop-color="#78CB9E" offset="100%"/></linearGradient><linearGradient x1="0%" y1="50%" x2="100%" y2="50%" id="d"><stop stop-color="#9BD48E" offset="0%"/><stop stop-color="#78CB9E" offset="100%"/></linearGradient><path d="M60.596 0v12H40v23.612H0v-29l2.596-.001V0h58z" id="a"/></defs><g fill="none" fill-rule="evenodd"><g transform="translate(1.689 13.678)"><mask id="b" fill="#fff"><use xlink:href="#a"/></mask><path d="M7.967 1.972v27.191h-3.27c-1.094 0-1.915-1-1.703-2.073L7.967 1.972zm51.291 0H7.985v30.696c0 .958.776 1.735 1.735 1.735h47.803c.958 0 1.735-.777 1.735-1.735V1.972zM7.967 29.163h51.274" stroke="#333" stroke-width="1.3" mask="url(#b)"/><path d="M30.277 17.834v.866a3.344 3.344 0 003.443 3.342c1.8-.052 3.274-1.597 3.244-3.398V18.6c-.026-.885-.546-1.682-1.315-2.12l-4.056-2.306c-.77-.437-1.289-1.234-1.315-2.12v-.042c-.03-1.801 1.444-3.347 3.244-3.398a3.343 3.343 0 013.443 3.342v.866m-3.344-6.445v2.238m0 13.428v2.237" stroke="#333" stroke-width="1.3" mask="url(#b)"/></g><path d="M5.357 13.933a4 4 0 00-3.939 3.306L0 25.277h20.478l-1.418-8.038a4 4 0 00-3.939-3.306H5.357z" fill="url(#c)" transform="translate(45.408 28.763)"/><path d="M6.035 4.203v2.754a4.216 4.216 0 004.203 4.203 4.215 4.215 0 004.204-4.203V4.203A4.215 4.215 0 0010.238 0a4.216 4.216 0 00-4.203 4.203" fill="url(#d)" transform="translate(45.408 28.763)"/></g></svg>