<svg width="70" height="70" viewBox="0 0 70 70" xmlns="http://www.w3.org/2000/svg" xmlns:xlink="http://www.w3.org/1999/xlink"><defs><linearGradient x1="50%" y1="0%" x2="50%" y2="100%" id="c"><stop stop-color="#FFF" offset="0%"/><stop stop-color="#F0F0F0" offset="100%"/></linearGradient><linearGradient x1="50%" y1="0%" x2="50%" y2="100%" id="d"><stop stop-color="#FF2E3B" offset="0%"/><stop stop-color="#FC0D1B" offset="100%"/></linearGradient><rect id="a" x="0" y="0" width="70" height="50" rx="2"/></defs><g transform="translate(0 10)" fill="none" fill-rule="evenodd"><mask id="b" fill="#fff"><use xlink:href="#a"/></mask><use fill="#FFF" xlink:href="#a"/><path fill="#0A17A7" mask="url(#b)" d="M0 0h70v50H0z"/><path d="M30.333-.601v1.93c0 .283-.177.636-.405.799l-11.261 8.044v3.008L30.48 23.306l-1.771.36a1.559 1.559 0 01-.835-.251L16.56 15.333h-3.131L-.333 23.935v-2.44l11.666-8.333v-3.009L-.9-.333h2.674L13.44 8h3.131L30.333-.601z" stroke="#FFF" stroke-width=".667" fill="#FF2E3B" mask="url(#b)"/><path d="M0 8.333V15h11.667v9.328c0 .371.303.672.663.672h5.34a.66.66 0 00.663-.672V15h12.672a.667.667 0 00.662-.664v-5.34a.667.667 0 00-.662-.663H18.333V0h-6.666v8.333H0z" fill="url(#c)" mask="url(#b)"/><path fill="url(#d)" mask="url(#b)" d="M0 10h13.333V0h3.334v10H30v3.333H16.667v10h-3.334v-10H0z"/><path fill="#FFF" mask="url(#b)" d="M15 40.833l-2.939 1.545.561-3.272-2.377-2.318 3.286-.477L15 33.333l1.47 2.978 3.285.477-2.377 2.318.56 3.272zm35 2.5l-2.357.69.69-2.356-.69-2.357L50 40l2.357-.69-.69 2.357.69 2.357zm0-31.666l-2.357.69.69-2.357-.69-2.357 2.357.69 2.357-.69-.69 2.357.69 2.357zm10 10l-2.357.69.69-2.357-.69-2.357 2.357.69 2.357-.69-.69 2.357.69 2.357zM40 25l-2.357.69.69-2.357-.69-2.357 2.357.69 2.357-.69-.69 2.357.69 2.357zm15 4.167l-1.179.345.346-1.179-.346-1.178L55 27.5l1.179-.345-.346 1.178.346 1.179z"/></g></svg>