<svg width="70" height="70" viewBox="0 0 70 70" xmlns="http://www.w3.org/2000/svg" xmlns:xlink="http://www.w3.org/1999/xlink"><defs><rect id="a" x="0" y="0" width="70" height="50" rx="2"/></defs><g transform="translate(0 10)" fill="none" fill-rule="evenodd"><mask id="b" fill="#fff"><use xlink:href="#a"/></mask><rect stroke="#F5F5F5" stroke-width=".5" x=".25" y=".25" width="69.5" height="49.5" rx="2"/><path fill="#FF3131" mask="url(#b)" d="M50 0h20v50H50zM0 0h20v50H0zm38.573 24.76c-.132.133-.21.095-.174-.087L40 16.667l-3.333 1.666-1.667-5-1.667 5L30 16.667l1.601 8.006c.036.18-.045.216-.174.087l-2.854-2.854a.339.339 0 00-.471-.008l-1.435 1.435-3.334-1.666L25 25l-1.435 1.435a.331.331 0 00.01.473l4.758 4.759h5l.834 5h1.666l.834-5h5l4.759-4.76a.34.34 0 00.009-.472L45 25l1.667-3.333-3.334 1.666-1.435-1.435a.337.337 0 00-.471.008l-2.854 2.854z"/></g></svg>