<svg width="70" height="70" xmlns="http://www.w3.org/2000/svg" xmlns:xlink="http://www.w3.org/1999/xlink" viewBox="0 0 70 70"><defs><path d="M4.016 0a1 1 0 00-.93.74L0 12.253h45.103a1 1 0 011 1v34.475a.99.99 0 01-.899.98.985.985 0 001.005-.72l8.923-33.301a1 1 0 00-.708-1.225L4.311.033A.962.962 0 004.089 0h-.073z" id="a"/><path id="d" d="M0 49.38h63.595V0H0z"/><linearGradient x1="0%" y1="50%" x2="100%" y2="50%" id="b"><stop stop-color="#9BD48E" offset="0%"/><stop stop-color="#78CB9E" offset="100%"/></linearGradient></defs><g fill="none" fill-rule="evenodd"><g transform="translate(11.429 9.001)"><mask id="c" fill="#fff"><use xlink:href="#a"/></mask><use fill="url(#b)" xlink:href="#a"/><path d="M4.016 0a1 1 0 00-.93.74L0 12.253h45.103a1 1 0 011 1v34.475a.99.99 0 01-.899.98.985.985 0 001.005-.72l8.923-33.301a1 1 0 00-.708-1.225L4.311.033A.962.962 0 004.089 0h-.073z" fill="url(#b)" mask="url(#c)"/></g><g transform="translate(3 9)"><path d="M1.65 48.73h51.881a1 1 0 001-1V13.254a1 1 0 00-1-1H1.651a1 1 0 00-1 1V47.73a1 1 0 001 1z" stroke="#333" stroke-width="1.3"/><mask id="e" fill="#fff"><use xlink:href="#d"/></mask><path stroke="#333" stroke-width="1.3" mask="url(#e)" d="M6.055 33.196h6.946v-5.408H6.055zm0 7.767h6.946m29.181 0h6.945m-31.03 0h6.946m5.096 0h6.946"/><path stroke="#333" stroke-width="1.3" stroke-linejoin="bevel" mask="url(#e)" d="M60.497 26.118l-5.966-1.598M32.754 12.254L10.059 6.173m52.046 13.946l-7.573-2.029"/></g></g></svg>