<svg width="70" height="70" viewBox="0 0 70 70" xmlns="http://www.w3.org/2000/svg" xmlns:xlink="http://www.w3.org/1999/xlink"><defs><rect id="a" x="0" y="0" width="70" height="50" rx="2"/></defs><g transform="translate(0 10)" fill="none" fill-rule="evenodd"><mask id="b" fill="#fff"><use xlink:href="#a"/></mask><use fill="#FFF" xlink:href="#a"/><path fill="red" mask="url(#b)" d="M0 0h70v50H0z"/><path d="M30 30h-9.667a.328.328 0 01-.333-.333v-9.334c0-.184.141-.333.333-.333H30v-9.667c0-.184.141-.333.333-.333h9.334c.184 0 .333.141.333.333V20h9.667c.184 0 .333.141.333.333v9.334a.328.328 0 01-.333.333H40v9.667a.328.328 0 01-.333.333h-9.334a.328.328 0 01-.333-.333V30z" fill="#FFF" mask="url(#b)"/></g></svg>