<svg width="70" height="70" viewBox="0 0 70 70" xmlns="http://www.w3.org/2000/svg" xmlns:xlink="http://www.w3.org/1999/xlink"><defs><rect id="a" x="0" y="0" width="70" height="50" rx="2"/></defs><g transform="translate(0 10)" fill="none" fill-rule="evenodd"><mask id="b" fill="#fff"><use xlink:href="#a"/></mask><use fill="#FFF" xlink:href="#a"/><path fill="#F1361D" mask="url(#b)" d="M0 0h70v50H0z"/><path d="M29.898 25.39l.03 2.456 1.348 2.052-2.455.03-2.053 1.348-.029-2.455-1.349-2.053 2.456-.029 2.052-1.349zm1.523-6.454l2.202 1.09 2.44-.271-1.088 2.201.27 2.441-2.201-1.089-2.441.27 1.089-2.2-.27-2.442zM35 10.446l-.057 2.456L36.22 15l-2.455-.057-2.098 1.277.056-2.455-1.276-2.098 2.455.056L35 10.447zm-7.752-6.931l1.816 1.654 2.421.412-1.654 1.816-.412 2.421-1.816-1.653-2.421-.413 1.653-1.816.413-2.421zM16.667 20.567l-5.878 4.19 2.169-6.885-5.802-4.296 7.218-.064 2.293-6.845 2.292 6.845 7.218.064-5.801 4.296 2.169 6.885z" fill="#FFDC42" mask="url(#b)"/></g></svg>