<svg width="70" height="70" viewBox="0 0 70 70" xmlns="http://www.w3.org/2000/svg" xmlns:xlink="http://www.w3.org/1999/xlink"><defs><rect id="a" x="0" y="0" width="70" height="50" rx="2"/></defs><g transform="translate(0 10)" fill="none" fill-rule="evenodd"><mask id="b" fill="#fff"><use xlink:href="#a"/></mask><rect stroke="#F5F5F5" stroke-width=".5" x=".25" y=".25" width="69.5" height="49.5" rx="2"/><path d="M0 30h20v20H2c-1.104 0-2-.89-2-1.99V30zm70 0v18.01c0 1.099-.898 1.99-2 1.99H30V30h40zM68 0c1.104 0 2 .89 2 1.99V20H30V0h38zM20 20H0V1.99C0 .892.898 0 2 0h18v20z" fill="#EF264D" mask="url(#b)"/></g></svg>