<svg width="70" height="70" viewBox="0 0 70 70" xmlns="http://www.w3.org/2000/svg" xmlns:xlink="http://www.w3.org/1999/xlink"><defs><rect id="a" x="0" y="0" width="70" height="50" rx="2"/></defs><g transform="translate(0 10)" fill="none" fill-rule="evenodd"><mask id="b" fill="#fff"><use xlink:href="#a"/></mask><use fill="#FFF" xlink:href="#a"/><path fill="#043CAE" mask="url(#b)" d="M0 0h70v50H0z"/><path d="M37.357 39.31l-.69 2.357.69 2.357-2.357-.69-2.357.69.69-2.357-.69-2.357L35 40l2.357-.69zm-8.333-2.233l-.69 2.357.69 2.357-2.357-.69-2.357.69.69-2.357-.69-2.357 2.357.69 2.357-.69zm16.666 0L45 39.434l.69 2.357-2.357-.69-2.357.69.69-2.357-.69-2.357 2.357.69 2.357-.69zm6.1-6.1l-.69 2.356.69 2.357-2.356-.69-2.357.69.69-2.357-.69-2.357 2.357.69 2.357-.69zm-28.867 0l-.69 2.356.69 2.357-2.357-.69-2.357.69.69-2.357-.69-2.357 2.357.69 2.357-.69zm31.1-8.334L53.334 25l.69 2.357-2.356-.69-2.357.69L50 25l-.69-2.357 2.357.69 2.357-.69zm-33.333 0L20 25l.69 2.357-2.357-.69-2.357.69.69-2.357-.69-2.357 2.357.69 2.357-.69zm31.1-8.333l-.69 2.357.69 2.357-2.356-.69-2.357.69.69-2.357-.69-2.357 2.357.69 2.357-.69zm-28.867 0l-.69 2.357.69 2.357-2.357-.69-2.357.69.69-2.357-.69-2.357 2.357.69 2.357-.69zm22.767-6.1L45 10.565l.69 2.357-2.357-.69-2.357.69.69-2.357-.69-2.357 2.357.69 2.357-.69zm-16.666 0l-.69 2.356.69 2.357-2.357-.69-2.357.69.69-2.357-.69-2.357 2.357.69 2.357-.69zm8.333-2.234l-.69 2.357.69 2.357L35 10l-2.357.69.69-2.357-.69-2.357 2.357.69 2.357-.69z" fill="#FFD429" mask="url(#b)"/></g></svg>