<svg width="70" height="70" viewBox="0 0 70 70" xmlns="http://www.w3.org/2000/svg" xmlns:xlink="http://www.w3.org/1999/xlink"><defs><rect id="a" x="0" y="0" width="70" height="50" rx="2"/></defs><g transform="translate(0 10)" fill="none" fill-rule="evenodd"><mask id="b" fill="#fff"><use xlink:href="#a"/></mask><use fill="#FFF" xlink:href="#a"/><path fill="#0A17A7" mask="url(#b)" d="M0 0h70v50H0z"/><path d="M73.206-4.791L76.934.736l-23.62 15.93H70v16.667H53.315l23.62 15.931-3.729 5.527-29.873-20.15v18.692H26.667l-.001-18.692-29.872 20.15-3.728-5.527 23.619-15.931H0V16.667l16.684-.001L-6.934.736l3.728-5.527 29.872 20.149V-3.333h16.667v18.692l29.873-20.15z" fill="#FFF" mask="url(#b)"/><path stroke="#DB1F35" stroke-width=".667" stroke-linecap="round" mask="url(#b)" d="M46.67 15.83L78.333-5"/><path stroke="#DB1F35" stroke-width=".667" stroke-linecap="round" mask="url(#b)" transform="matrix(1 0 0 -1 0 87.62)" d="M50.032 53.376l28.385-19.132"/><path stroke="#DB1F35" stroke-width=".667" stroke-linecap="round" mask="url(#b)" d="M20.014 15.776L-9.594-4.177"/><path stroke="#DB1F35" stroke-width=".667" stroke-linecap="round" mask="url(#b)" transform="matrix(1 0 0 -1 0 89.788)" d="M23.225 55.776L-9.594 34.012"/><path fill="#E6273E" mask="url(#b)" d="M0 30h30v20h10V30h30V20H40V0H30v20H0z"/></g></svg>