<svg width="70" height="70" viewBox="0 0 70 70" xmlns="http://www.w3.org/2000/svg" xmlns:xlink="http://www.w3.org/1999/xlink"><defs><rect id="a" x="0" y="0" width="70" height="50" rx="2"/></defs><g transform="translate(0 10)" fill="none" fill-rule="evenodd"><mask id="b" fill="#fff"><use xlink:href="#a"/></mask><use fill="#FFF" xlink:href="#a"/><path fill="#F0371D" mask="url(#b)" d="M0 0h70v50H0z"/><path d="M37.1 26.705c2.626-.854 5.678 1.293 6.816 4.795 1.137 3.502-.07 7.032-2.696 7.885-.977-3.008-2.66-2.793-3.13-4.24-.577-1.775-.723-2.225.04-5.27.763-3.045-2.325-2.75-1.03-3.17zm-5.165 3.217c3.131-.215 1.896-3.061 2.696-1.96 1.623 2.235.524 5.8-2.454 7.964-2.979 2.164-6.71 2.108-8.333-.126 2.56-1.86 1.835-3.393 3.066-4.288 1.51-1.097 1.893-1.375 5.025-1.59zm-2.998 2.962a.833.833 0 10.98 1.349.833.833 0 00-.98-1.349zm11.62-.293a.833.833 0 10.514 1.586.833.833 0 00-.515-1.586zM21.884 18.166c2.559 1.86 3.794.697 5.025 1.59 1.51 1.098 1.893 1.376 3.065 4.288 1.173 2.912 3.497.858 2.697 1.96-1.623 2.233-5.354 2.29-8.332.126-2.98-2.164-4.078-5.73-2.455-7.964zm21.448.802c3.682 0 6.667 2.239 6.667 5-3.163 0-3.479 1.667-5 1.667h-.367c-1.575-.008-2.157-.115-4.633-1.667-2.66-1.667-3.333 1.362-3.333 0 0-2.761 2.984-5 6.666-5zm-18.266 3.325a.833.833 0 101.349.98.833.833 0 00-1.349-.98zm6.168-6.644c1.138-3.502 4.189-5.649 6.815-4.795-.977 3.008.51 3.823.04 5.27-.577 1.775-.723 2.226-3.13 4.24-2.407 2.015.265 3.591-1.03 3.17-2.626-.853-3.833-4.383-2.695-7.885zm12.932 6.018a.833.833 0 100 1.666.833.833 0 000-1.666zM34.059 15.69a.833.833 0 101.585.515.833.833 0 00-1.585-.515z" fill="#FFF" mask="url(#b)"/></g></svg>