<svg width="70" height="70" viewBox="0 0 70 70" xmlns="http://www.w3.org/2000/svg" xmlns:xlink="http://www.w3.org/1999/xlink"><defs><rect id="a" x="0" y="0" width="70" height="50" rx="2"/></defs><g transform="translate(0 10)" fill="none" fill-rule="evenodd"><mask id="b" fill="#fff"><use xlink:href="#a"/></mask><use fill="#FFF" xlink:href="#a"/><path fill="#0A17A7" mask="url(#b)" d="M0 0h70v50H0z"/><path d="M30.333-.601v1.93c0 .283-.177.636-.405.799l-11.261 8.044v3.008L30.48 23.306l-1.771.36a1.559 1.559 0 01-.835-.251L16.56 15.333h-3.131L-.333 23.935v-2.44l11.666-8.333v-3.009L-.9-.333h2.674L13.44 8h3.131L30.333-.601z" stroke="#FFF" stroke-width=".667" fill="#FF2E3B" mask="url(#b)"/><path d="M0 8.333V15h11.667v9.328c0 .371.303.672.663.672h5.34a.66.66 0 00.663-.672V15h12.672a.667.667 0 00.662-.664v-5.34a.667.667 0 00-.662-.663H18.333V0h-6.666v8.333H0z" fill="#FFF" mask="url(#b)"/><path fill="#FF2E3B" mask="url(#b)" d="M0 10h13.333V0h3.334v10H30v3.333H16.667v10h-3.334v-10H0z"/><path fill="#CA1931" mask="url(#b)" d="M50 43.333l-2.357.69.69-2.356-.69-2.357L50 40l2.357-.69-.69 2.357.69 2.357zm0-31.666l-2.357.69.69-2.357-.69-2.357 2.357.69 2.357-.69-.69 2.357.69 2.357zm10 10l-2.357.69.69-2.357-.69-2.357 2.357.69 2.357-.69-.69 2.357.69 2.357zM40 25l-2.357.69.69-2.357-.69-2.357 2.357.69 2.357-.69-.69 2.357.69 2.357z"/></g></svg>