<svg width="70" height="70" viewBox="0 0 70 70" xmlns="http://www.w3.org/2000/svg" xmlns:xlink="http://www.w3.org/1999/xlink"><defs><rect id="a" x="0" y="0" width="70" height="50" rx="2"/></defs><g transform="translate(0 10)" fill="none" fill-rule="evenodd"><mask id="b" fill="#fff"><use xlink:href="#a"/></mask><rect stroke="#BEBEBE" stroke-width=".5" x=".25" y=".25" width="69.5" height="49.5" rx="2"/><path fill="#E12237" mask="url(#b)" d="M0 0h70v26.667H0z"/><path d="M16.667 3.333c2.362 0 4.533.82 6.244 2.19A8.324 8.324 0 0020 5a8.333 8.333 0 102.91 16.144 9.955 9.955 0 01-6.243 2.19c-5.523 0-10-4.478-10-10 0-5.524 4.477-10 10-10zm5 13.334a1.667 1.667 0 110 3.333 1.667 1.667 0 010-3.333zm6.666 0a1.667 1.667 0 110 3.333 1.667 1.667 0 010-3.333zm-10-6.667a1.667 1.667 0 110 3.333 1.667 1.667 0 010-3.333zm13.334 0a1.667 1.667 0 110 3.333 1.667 1.667 0 010-3.333zM25 5a1.667 1.667 0 110 3.333A1.667 1.667 0 0125 5z" fill="#FFF" mask="url(#b)"/></g></svg>