<svg width="70" height="70" viewBox="0 0 70 70" xmlns="http://www.w3.org/2000/svg" xmlns:xlink="http://www.w3.org/1999/xlink"><defs><rect id="a" x="0" y="0" width="70" height="50" rx="2"/></defs><g transform="translate(0 10)" fill="none" fill-rule="evenodd"><mask id="b" fill="#fff"><use xlink:href="#a"/></mask><use fill="#FFF" xlink:href="#a"/><path fill="#E92434" mask="url(#b)" d="M0 0h70v50H0z"/><path fill="#FFF" mask="url(#b)" d="M46.714 27.031l-3.918 2.794 1.446-4.59-3.868-2.864 4.812-.043 1.528-4.563 1.529 4.563 4.812.043-3.868 2.864 1.446 4.59-3.919-2.794z"/><path d="M31.667 10c4.812 0 9.096 2.267 11.84 5.79-2.117-1.54-4.78-2.457-7.674-2.457-6.903 0-12.5 5.224-12.5 11.667s5.597 11.667 12.5 11.667c2.893 0 5.557-.918 7.675-2.457A14.975 14.975 0 0131.667 40c-8.285 0-15-6.716-15-15 0-8.284 6.715-15 15-15z" fill="#FFF" mask="url(#b)"/></g></svg>